<svg xmlns="http://www.w3.org/2000/svg" width="512" height="512" viewBox="0 0 512 512" role="img" aria-labelledby="title desc">
  <title id="title">chatER</title>
  <desc id="desc">Icono geométrico de reserva para chatER con burbuja de mensajería blanca sobre fondo verde.</desc>
  <defs>
    <linearGradient id="bg" x1="0" y1="0" x2="1" y2="1">
      <stop offset="0" stop-color="#13d7a8"/>
      <stop offset="0.52" stop-color="#0aa884"/>
      <stop offset="1" stop-color="#087763"/>
    </linearGradient>
    <filter id="shadow" x="-20%" y="-20%" width="140%" height="150%" color-interpolation-filters="sRGB">
      <feDropShadow dx="0" dy="16" stdDeviation="18" flood-color="#052e26" flood-opacity="0.2"/>
    </filter>
  </defs>
  <rect width="512" height="512" rx="115" fill="url(#bg)"/>
  <circle cx="410" cy="92" r="67" fill="#d9fdd3" opacity="0.26"/>
  <circle cx="102" cy="430" r="82" fill="#ffffff" opacity="0.12"/>
  <path filter="url(#shadow)" fill="#ffffff" d="M113 175c0-87 86-156 192-156h29c106 0 192 69 192 156v37c0 87-86 156-192 156H236l-82 67c-26 20-61-5-54-41l18-67a343 343 0 0 1-36-69v-37Z"/>
  <circle cx="215" cy="215" r="18" fill="#0f766e"/>
  <circle cx="256" cy="215" r="18" fill="#0f766e"/>
  <circle cx="297" cy="215" r="18" fill="#0f766e"/>
  <path d="M189 287c46 36 92 36 138 0" fill="none" stroke="#0f766e" stroke-width="11" stroke-linecap="round" opacity="0.82"/>
  <text x="50%" y="399" text-anchor="middle" font-family="Arial, Helvetica, sans-serif" font-size="82" font-weight="900" fill="#ffffff" opacity="0.96">cE</text>
</svg>
