<svg xmlns="http://www.w3.org/2000/svg" width="192" height="192" viewBox="0 0 192 192" role="img" aria-labelledby="title desc">
  <title id="title">chatER</title>
  <desc id="desc">Icono geométrico de reserva para chatER con burbuja de mensajería blanca sobre fondo verde.</desc>
  <defs>
    <linearGradient id="bg" x1="0" y1="0" x2="1" y2="1">
      <stop offset="0" stop-color="#13d7a8"/>
      <stop offset="0.52" stop-color="#0aa884"/>
      <stop offset="1" stop-color="#087763"/>
    </linearGradient>
    <filter id="shadow" x="-20%" y="-20%" width="140%" height="150%" color-interpolation-filters="sRGB">
      <feDropShadow dx="0" dy="6" stdDeviation="7" flood-color="#052e26" flood-opacity="0.2"/>
    </filter>
  </defs>
  <rect width="192" height="192" rx="43" fill="url(#bg)"/>
  <circle cx="154" cy="35" r="25" fill="#d9fdd3" opacity="0.26"/>
  <circle cx="38" cy="161" r="31" fill="#ffffff" opacity="0.12"/>
  <path filter="url(#shadow)" fill="#ffffff" d="M42 66c0-33 32-58 72-58h11c40 0 72 26 72 58v14c0 33-32 58-72 58H88l-31 25c-10 8-23-2-20-15l7-25a129 129 0 0 1-13-26v-14Z"/>
  <circle cx="81" cy="81" r="7" fill="#0f766e"/>
  <circle cx="96" cy="81" r="7" fill="#0f766e"/>
  <circle cx="111" cy="81" r="7" fill="#0f766e"/>
  <path d="M71 108c17 13 35 13 52 0" fill="none" stroke="#0f766e" stroke-width="4" stroke-linecap="round" opacity="0.82"/>
  <text x="50%" y="150" text-anchor="middle" font-family="Arial, Helvetica, sans-serif" font-size="31" font-weight="900" fill="#ffffff" opacity="0.96">cE</text>
</svg>
